<svg xmlns="http://www.w3.org/2000/svg" width="21" height="26">
  <g fill="none" fill-rule="evenodd">
    <path fill="#A2DDEF" d="M8.094 7.804v3.45l3.56-.004c.045 0 .087 0 .128-.003.936-.061 1.667-.816 1.667-1.72 0-.95-.803-1.723-1.791-1.723H8.094zm-3.52 17.04c-1.945 0-3.522-1.517-3.522-3.387v-6.454a3.302 3.302 0 0 1 0-.72V4.419c0-1.87 1.577-3.387 3.521-3.387h7.085c4.87 0 8.833 3.812 8.833 8.496 0 4.454-3.617 8.178-8.234 8.476-.197.014-.399.02-.6.02l-3.563.004v3.43c0 1.87-1.576 3.386-3.52 3.386z"/>
    <path stroke="#368BD6" stroke-width=".612" d="M8.094 7.804v3.45l3.56-.004c.045 0 .087 0 .128-.003.936-.061 1.667-.816 1.667-1.72 0-.95-.803-1.723-1.791-1.723H8.094zm-3.52 17.04c-1.945 0-3.522-1.517-3.522-3.387v-6.454a3.302 3.302 0 0 1 0-.72V4.419c0-1.87 1.577-3.387 3.521-3.387h7.085c4.87 0 8.833 3.812 8.833 8.496 0 4.454-3.617 8.178-8.234 8.476-.197.014-.399.02-.6.02l-3.563.004v3.43c0 1.87-1.576 3.386-3.52 3.386z"/>
    <path stroke="#368BD6" stroke-linecap="round" stroke-width=".612" d="M4.573 21.457V4.417h7.085c2.934 0 5.312 2.289 5.312 5.11 0 2.705-2.185 4.919-4.95 5.098-.12.008-.24.012-.362.012l-7.104.007"/>
    <path fill="#368BD6" d="M7.474 2.476c.54.74.748 1.64.584 2.53A3.354 3.354 0 0 1 6.61 7.19c-1.591 1.071-3.793.698-4.907-.831a3.26 3.26 0 0 1-.584-2.53 3.352 3.352 0 0 1 1.45-2.186c1.59-1.07 3.792-.698 4.906.832zM17 24.84c-1.11 0-2.201-.503-2.886-1.443l-4.976-6.83c-1.116-1.531-.73-3.643.863-4.716 1.592-1.074 3.788-.702 4.903.83l4.977 6.83c1.116 1.531.73 3.643-.863 4.716a3.602 3.602 0 0 1-2.018.613z"/>
  </g>
</svg>
