<svg xmlns="http://www.w3.org/2000/svg" viewBox="0 0 793.322 340.809">
  <path fill="#FFF" d="M34.004 340.809H2a2 2 0 0 1-2-2V2a2 2 0 0 1 2-2h32.004a2 2 0 0 1 2 2v7.71a2 2 0 0 1-2 2h-21.13v317.386h21.13a2 2 0 0 1 2 2.001v7.712a2 2 0 0 1-2 2z" opacity=".5"/>
  <path fill="#FFF" d="M10.875 9.711v321.386h23.13v7.711H1.999V2.001h32.006v7.71h-23.13zM252.402 233.711h-32.993a2 2 0 0 1-2-2v-68.073c0-3.949-.154-7.722-.457-11.213-.289-3.282-1.074-6.153-2.332-8.53-1.204-2.276-3.017-4.119-5.384-5.476-2.393-1.362-5.775-2.056-10.042-2.056-4.238 0-7.674.798-10.213 2.371-2.565 1.596-4.604 3.701-6.053 6.258-1.498 2.643-2.51 5.694-3.013 9.067a72.757 72.757 0 0 0-.793 10.741v66.91a2 2 0 0 1-2 2h-32.991a2 2 0 0 1-2-2v-67.373c0-3.435-.078-6.964-.228-10.485-.148-3.251-.767-6.278-1.841-8.995-1.018-2.571-2.667-4.584-5.047-6.153-2.372-1.552-6.029-2.341-10.865-2.341-1.372 0-3.265.328-5.629.976-2.28.624-4.536 1.826-6.705 3.577-2.152 1.732-4.036 4.306-5.605 7.655-1.569 3.356-2.367 7.877-2.367 13.438v69.701a2 2 0 0 1-2 2H68.857a2 2 0 0 1-2-2V111.594a2 2 0 0 1 2-1.999h31.13a2 2 0 0 1 2 1.999v11.007c3.834-4.499 8.248-8.152 13.173-10.896 6.396-3.559 13.799-5.362 22.002-5.362 7.846 0 15.127 1.548 21.642 4.604 5.794 2.722 10.424 7.26 13.791 13.52 3.449-4.362 7.833-8.306 13.071-11.752 6.422-4.228 14.102-6.371 22.824-6.371 6.499 0 12.625.807 18.209 2.399 5.686 1.628 10.635 4.271 14.712 7.857 4.088 3.605 7.318 8.357 9.601 14.123 2.25 5.719 3.391 12.649 3.391 20.604v80.384a2.002 2.002 0 0 1-2.001 2z" opacity=".5"/>
  <path fill="#FFF" d="M99.988 111.595v16.264h.463c4.338-6.191 9.563-10.998 15.684-14.406 6.117-3.402 13.129-5.11 21.027-5.11 7.588 0 14.521 1.475 20.793 4.415 6.274 2.945 11.038 8.131 14.291 15.567 3.56-5.265 8.4-9.913 14.521-13.94 6.117-4.025 13.358-6.042 21.724-6.042 6.351 0 12.234.776 17.66 2.325 5.418 1.549 10.065 4.027 13.938 7.434 3.869 3.41 6.889 7.863 9.062 13.357 2.167 5.504 3.253 12.122 3.253 19.869v80.385H219.41v-68.074c0-4.025-.154-7.82-.465-11.385-.313-3.56-1.161-6.656-2.555-9.293-1.395-2.631-3.45-4.724-6.157-6.274-2.711-1.543-6.391-2.322-11.037-2.322s-8.403.896-11.269 2.671c-2.868 1.784-5.112 4.109-6.737 6.971-1.626 2.869-2.711 6.12-3.252 9.762a74.395 74.395 0 0 0-.814 11.035v66.91h-32.991v-67.375c0-3.562-.081-7.087-.23-10.57-.158-3.487-.814-6.7-1.978-9.645-1.162-2.94-3.099-5.304-5.809-7.088-2.711-1.775-6.699-2.671-11.965-2.671-1.551 0-3.603.349-6.156 1.048-2.556.697-5.036 2.016-7.435 3.949-2.404 1.938-4.454 4.726-6.158 8.363-1.705 3.642-2.556 8.402-2.556 14.287v69.701h-32.99V111.595h31.132zM304.909 236.733c-5.883 0-11.46-.729-16.574-2.163-5.192-1.464-9.806-3.774-13.713-6.871-3.944-3.117-7.068-7.111-9.282-11.871-2.205-4.733-3.324-10.412-3.324-16.876 0-7.13 1.293-13.117 3.846-17.797 2.542-4.674 5.877-8.464 9.912-11.263 3.97-2.752 8.556-4.842 13.63-6.209a142.954 142.954 0 0 1 14.961-3.184 261.677 261.677 0 0 1 14.754-1.872c4.679-.452 8.88-1.139 12.489-2.039 3.412-.854 6.118-2.09 8.042-3.672 1.666-1.37 2.416-3.384 2.292-6.151-.002-3.289-.502-5.816-1.492-7.595-.998-1.798-2.283-3.15-3.927-4.138-1.703-1.02-3.725-1.713-6.012-2.062-2.47-.37-5.146-.557-7.947-.557-6.034 0-10.789 1.271-14.135 3.783-3.233 2.424-5.155 6.64-5.714 12.527a2.003 2.003 0 0 1-1.992 1.812h-32.992a2.006 2.006 0 0 1-1.457-.629 2.013 2.013 0 0 1-.54-1.491c.485-8.073 2.55-14.894 6.142-20.272a41.725 41.725 0 0 1 13.661-12.931c5.424-3.191 11.612-5.498 18.392-6.857a103.675 103.675 0 0 1 20.26-2.013c6.096 0 12.365.437 18.626 1.296 6.377.88 12.285 2.622 17.562 5.177 5.376 2.604 9.845 6.29 13.282 10.951 3.498 4.744 5.271 11.048 5.271 18.731v62.494c0 5.307.306 10.462.915 15.319.576 4.64 1.572 8.116 2.963 10.338.385.616.407 1.395.055 2.031a2.002 2.002 0 0 1-1.75 1.03h-33.457c-.861 0-1.624-.55-1.898-1.367a49.145 49.145 0 0 1-1.572-5.936 49.182 49.182 0 0 1-.38-2.12 44.922 44.922 0 0 1-16.474 9.105 77.066 77.066 0 0 1-22.423 3.342zm37.032-60.072c-.809.409-1.676.768-2.596 1.074-2.161.72-4.511 1.326-6.988 1.807-2.442.475-5.033.872-7.699 1.186-2.631.311-5.251.697-7.784 1.146a56.995 56.995 0 0 0-7.051 1.792c-2.194.711-4.114 1.667-5.699 2.842-1.531 1.128-2.785 2.587-3.731 4.335-.917 1.709-1.385 3.97-1.385 6.719 0 2.598.465 4.778 1.385 6.481.928 1.722 2.142 3.035 3.716 4.018 1.644 1.026 3.601 1.757 5.816 2.17 2.344.439 4.799.663 7.297.663 6.105 0 10.836-.996 14.063-2.961 3.244-1.973 5.666-4.349 7.199-7.062 1.568-2.78 2.542-5.62 2.892-8.436.376-3.019.565-5.436.565-7.187v-8.587z" opacity=".5"/>
  <path fill="#FFF" d="M273.544 129.255c3.405-5.113 7.744-9.215 13.012-12.316 5.264-3.097 11.186-5.303 17.771-6.621a101.17 101.17 0 0 1 19.865-1.976c6.042 0 12.158.428 18.354 1.277 6.195.855 11.85 2.522 16.962 4.997 5.111 2.477 9.292 5.926 12.546 10.338 3.253 4.414 4.879 10.262 4.879 17.543v62.494c0 5.428.31 10.611.931 15.567.615 4.959 1.701 8.676 3.251 11.153H347.66a46.656 46.656 0 0 1-1.511-5.693 48.292 48.292 0 0 1-.813-5.923c-5.267 5.422-11.465 9.217-18.585 11.386a74.81 74.81 0 0 1-21.842 3.251c-5.733 0-11.077-.698-16.033-2.09-4.958-1.395-9.293-3.562-13.01-6.51-3.718-2.938-6.622-6.656-8.713-11.147s-3.138-9.84-3.138-16.033c0-6.813 1.199-12.43 3.604-16.84 2.399-4.417 5.495-7.939 9.295-10.575 3.793-2.632 8.129-4.607 13.01-5.923a140.326 140.326 0 0 1 14.752-3.137 253.631 253.631 0 0 1 14.638-1.857c4.801-.466 9.062-1.164 12.779-2.093 3.718-.929 6.658-2.282 8.829-4.065 2.165-1.781 3.172-4.375 3.02-7.785 0-3.56-.58-6.389-1.742-8.479-1.161-2.09-2.711-3.719-4.646-4.88-1.937-1.161-4.183-1.936-6.737-2.325-2.557-.382-5.309-.58-8.248-.58-6.506 0-11.617 1.395-15.335 4.183-3.716 2.788-5.889 7.437-6.506 13.94h-32.991c.462-7.742 2.395-14.173 5.807-19.281zm65.169 46.583a53.802 53.802 0 0 1-6.736 1.741c-2.402.465-4.918.853-7.551 1.161-2.635.313-5.268.698-7.899 1.163a59.302 59.302 0 0 0-7.317 1.857c-2.404.779-4.495 1.822-6.274 3.138-1.784 1.317-3.216 2.985-4.3 4.994-1.085 2.014-1.626 4.571-1.626 7.668 0 2.94.541 5.422 1.626 7.431 1.084 2.017 2.558 3.604 4.416 4.765s4.025 1.976 6.507 2.438c2.475.466 5.031.698 7.665.698 6.505 0 11.537-1.082 15.103-3.253 3.561-2.166 6.192-4.762 7.899-7.785 1.702-3.019 2.749-6.072 3.137-9.174.384-3.097.58-5.576.58-7.434V172.93c-1.396 1.243-3.138 2.21-5.23 2.908zM444.542 234.874c-5.187 0-10.173-.361-14.823-1.069-4.802-.732-9.104-2.183-12.779-4.313-3.789-2.185-6.821-5.341-9.006-9.375-2.163-3.986-3.26-9.232-3.26-15.59v-68.859h-17.981a2 2 0 0 1-2-1.999v-22.073a2 2 0 0 1 2-1.999h17.981V75.582a2 2 0 0 1 2-2h32.992a2 2 0 0 1 2 2v34.014h22.162a2 2 0 0 1 2 1.999v22.073a2 2 0 0 1-2 1.999h-22.162v57.479c0 6.229 1.198 8.731 2.202 9.733 1.004 1.007 3.506 2.205 9.738 2.205 1.804 0 3.542-.076 5.161-.225a44.198 44.198 0 0 0 4.669-.665 1.994 1.994 0 0 1 1.661.415c.463.379.73.946.73 1.546v25.555a2 2 0 0 1-1.672 1.974c-2.834.472-6.041.794-9.527.957-3.613.157-6.91.233-10.086.233z" opacity=".5"/>
  <path fill="#FFF" d="M463.825 111.595v22.072h-24.161v59.479c0 5.573.928 9.292 2.788 11.149 1.856 1.859 5.576 2.788 11.152 2.788 1.859 0 3.638-.076 5.343-.232a45.912 45.912 0 0 0 4.878-.696v25.557c-2.788.465-5.887.773-9.293.931-3.407.149-6.737.23-9.99.23-5.111 0-9.953-.35-14.521-1.048-4.571-.695-8.597-2.047-12.081-4.063-3.486-2.011-6.236-4.88-8.248-8.597-2.016-3.714-3.021-8.595-3.021-14.639v-70.859h-19.98v-22.072h19.98V75.583h32.992v36.012h24.162zM512.613 233.711h-32.991a2 2 0 0 1-2-2V111.594a2 2 0 0 1 2-1.999h31.366a2 2 0 0 1 2 1.999v15.069a43.465 43.465 0 0 1 3.199-4.382 43.541 43.541 0 0 1 9.496-8.522 46.77 46.77 0 0 1 11.415-5.462c4.056-1.298 8.327-1.954 12.691-1.954 2.341 0 4.953.418 7.766 1.243a2 2 0 0 1 1.437 1.92v30.67a2 2 0 0 1-2.395 1.96c-1.484-.3-3.299-.565-5.392-.787a57.416 57.416 0 0 0-6.062-.339c-5.706 0-10.572.95-14.467 2.823-3.862 1.86-7.012 4.428-9.361 7.629-2.389 3.263-4.115 7.12-5.127 11.47-1.043 4.479-1.574 9.409-1.574 14.647v54.132a2.002 2.002 0 0 1-2.001 2z" opacity=".5"/>
  <path fill="#FFF" d="M510.988 111.595V133.9h.465c1.546-3.72 3.636-7.163 6.272-10.341a41.182 41.182 0 0 1 9.06-8.131 44.466 44.466 0 0 1 10.923-5.228c3.868-1.237 7.898-1.859 12.081-1.859 2.168 0 4.566.39 7.202 1.163v30.67c-1.551-.312-3.41-.584-5.576-.814a58.79 58.79 0 0 0-6.274-.35c-6.041 0-11.152 1.01-15.332 3.021-4.182 2.014-7.55 4.761-10.107 8.247-2.555 3.487-4.379 7.55-5.462 12.198-1.083 4.645-1.625 9.682-1.625 15.102v54.133h-32.991V111.595h31.364zM603.923 233.711H570.93a2 2 0 0 1-2-2V111.594a2 2 0 0 1 2-1.999h32.994a2 2 0 0 1 2 1.999v120.117a2.002 2.002 0 0 1-2.001 2zm0-138.705H570.93a2 2 0 0 1-2-1.999V65.825a2 2 0 0 1 2-2h32.994a2 2 0 0 1 2 2v27.182a2.002 2.002 0 0 1-2.001 1.999z" opacity=".5"/>
  <path fill="#FFF" d="M570.93 93.007V65.824h32.994v27.183H570.93zm32.994 18.588v120.117H570.93V111.595h32.994zM742.163 233.711h-37.64a1.995 1.995 0 0 1-1.667-.896l-23.426-35.352-23.426 35.352a1.992 1.992 0 0 1-1.667.896h-36.938a2.003 2.003 0 0 1-1.77-1.067 2.002 2.002 0 0 1 .118-2.061l42.435-62.055-38.71-55.793a2.001 2.001 0 0 1 1.643-3.14h37.636c.665 0 1.287.33 1.658.882l19.477 28.893 19.255-28.884a2.004 2.004 0 0 1 1.665-.891h36.475c.746 0 1.43.415 1.776 1.078.343.66.289 1.46-.139 2.071l-38.69 55.082 43.578 62.744c.424.61.474 1.408.128 2.066a1.992 1.992 0 0 1-1.771 1.075z" opacity=".5"/>
  <path fill="#FFF" d="M621.115 111.595h37.637l21.144 31.365 20.911-31.365h36.476l-39.496 56.226 44.377 63.892h-37.64l-25.093-37.87-25.094 37.87h-36.938l43.213-63.193-39.497-56.925zM791.322 340.809h-32.008a2 2 0 0 1-2-2v-7.712a2 2 0 0 1 2-2.001h21.13V11.71h-21.13a2 2 0 0 1-2-2V2a2 2 0 0 1 2-2h32.008a2 2 0 0 1 2 2v336.809a2 2 0 0 1-2 2z" opacity=".5"/>
  <path fill="#FFF" d="M782.443 331.097V9.711h-23.13v-7.71h32.008v336.807h-32.008v-7.711h23.13z" opacity=".5"/>
  <path d="M10.875 9.711v321.386h23.13v7.711H1.999V2.001h32.006v7.71h-23.13zM99.988 111.595v16.264h.463c4.338-6.191 9.563-10.998 15.684-14.406 6.117-3.402 13.129-5.11 21.027-5.11 7.588 0 14.521 1.475 20.793 4.415 6.274 2.945 11.038 8.131 14.291 15.567 3.56-5.265 8.4-9.913 14.521-13.94 6.117-4.025 13.358-6.042 21.724-6.042 6.351 0 12.234.776 17.66 2.325 5.418 1.549 10.065 4.027 13.938 7.434 3.869 3.41 6.889 7.863 9.062 13.357 2.167 5.504 3.253 12.122 3.253 19.869v80.385H219.41v-68.074c0-4.025-.154-7.82-.465-11.385-.313-3.56-1.161-6.656-2.555-9.293-1.395-2.631-3.45-4.724-6.157-6.274-2.711-1.543-6.391-2.322-11.037-2.322s-8.403.896-11.269 2.671c-2.868 1.784-5.112 4.109-6.737 6.971-1.626 2.869-2.711 6.12-3.252 9.762a74.395 74.395 0 0 0-.814 11.035v66.91h-32.991v-67.375c0-3.562-.081-7.087-.23-10.57-.158-3.487-.814-6.7-1.978-9.645-1.162-2.94-3.099-5.304-5.809-7.088-2.711-1.775-6.699-2.671-11.965-2.671-1.551 0-3.603.349-6.156 1.048-2.556.697-5.036 2.016-7.435 3.949-2.404 1.938-4.454 4.726-6.158 8.363-1.705 3.642-2.556 8.402-2.556 14.287v69.701h-32.99V111.595h31.132zM273.544 129.255c3.405-5.113 7.744-9.215 13.012-12.316 5.264-3.097 11.186-5.303 17.771-6.621a101.17 101.17 0 0 1 19.865-1.976c6.042 0 12.158.428 18.354 1.277 6.195.855 11.85 2.522 16.962 4.997 5.111 2.477 9.292 5.926 12.546 10.338 3.253 4.414 4.879 10.262 4.879 17.543v62.494c0 5.428.31 10.611.931 15.567.615 4.959 1.701 8.676 3.251 11.153H347.66a46.656 46.656 0 0 1-1.511-5.693 48.292 48.292 0 0 1-.813-5.923c-5.267 5.422-11.465 9.217-18.585 11.386a74.81 74.81 0 0 1-21.842 3.251c-5.733 0-11.077-.698-16.033-2.09-4.958-1.395-9.293-3.562-13.01-6.51-3.718-2.938-6.622-6.656-8.713-11.147s-3.138-9.84-3.138-16.033c0-6.813 1.199-12.43 3.604-16.84 2.399-4.417 5.495-7.939 9.295-10.575 3.793-2.632 8.129-4.607 13.01-5.923a140.326 140.326 0 0 1 14.752-3.137 253.631 253.631 0 0 1 14.638-1.857c4.801-.466 9.062-1.164 12.779-2.093 3.718-.929 6.658-2.282 8.829-4.065 2.165-1.781 3.172-4.375 3.02-7.785 0-3.56-.58-6.389-1.742-8.479-1.161-2.09-2.711-3.719-4.646-4.88-1.937-1.161-4.183-1.936-6.737-2.325-2.557-.382-5.309-.58-8.248-.58-6.506 0-11.617 1.395-15.335 4.183-3.716 2.788-5.889 7.437-6.506 13.94h-32.991c.462-7.742 2.395-14.173 5.807-19.281zm65.169 46.583a53.802 53.802 0 0 1-6.736 1.741c-2.402.465-4.918.853-7.551 1.161-2.635.313-5.268.698-7.899 1.163a59.302 59.302 0 0 0-7.317 1.857c-2.404.779-4.495 1.822-6.274 3.138-1.784 1.317-3.216 2.985-4.3 4.994-1.085 2.014-1.626 4.571-1.626 7.668 0 2.94.541 5.422 1.626 7.431 1.084 2.017 2.558 3.604 4.416 4.765s4.025 1.976 6.507 2.438c2.475.466 5.031.698 7.665.698 6.505 0 11.537-1.082 15.103-3.253 3.561-2.166 6.192-4.762 7.899-7.785 1.702-3.019 2.749-6.072 3.137-9.174.384-3.097.58-5.576.58-7.434V172.93c-1.396 1.243-3.138 2.21-5.23 2.908zM463.825 111.595v22.072h-24.161v59.479c0 5.573.928 9.292 2.788 11.149 1.856 1.859 5.576 2.788 11.152 2.788 1.859 0 3.638-.076 5.343-.232a45.912 45.912 0 0 0 4.878-.696v25.557c-2.788.465-5.887.773-9.293.931-3.407.149-6.737.23-9.99.23-5.111 0-9.953-.35-14.521-1.048-4.571-.695-8.597-2.047-12.081-4.063-3.486-2.011-6.236-4.88-8.248-8.597-2.016-3.714-3.021-8.595-3.021-14.639v-70.859h-19.98v-22.072h19.98V75.583h32.992v36.012h24.162zM510.988 111.595V133.9h.465c1.546-3.72 3.636-7.163 6.272-10.341a41.182 41.182 0 0 1 9.06-8.131 44.466 44.466 0 0 1 10.923-5.228c3.868-1.237 7.898-1.859 12.081-1.859 2.168 0 4.566.39 7.202 1.163v30.67c-1.551-.312-3.41-.584-5.576-.814a58.79 58.79 0 0 0-6.274-.35c-6.041 0-11.152 1.01-15.332 3.021-4.182 2.014-7.55 4.761-10.107 8.247-2.555 3.487-4.379 7.55-5.462 12.198-1.083 4.645-1.625 9.682-1.625 15.102v54.133h-32.991V111.595h31.364zM570.93 93.007V65.824h32.994v27.183H570.93zm32.994 18.588v120.117H570.93V111.595h32.994zM621.115 111.595h37.637l21.144 31.365 20.911-31.365h36.476l-39.496 56.226 44.377 63.892h-37.64l-25.093-37.87-25.094 37.87h-36.938l43.213-63.193-39.497-56.925zM782.443 331.097V9.711h-23.13v-7.71h32.008v336.807h-32.008v-7.711h23.13z"/>
</svg>
