<svg xmlns="http://www.w3.org/2000/svg" viewBox="0 0 460.001 460.001">
  <path fill="#69a398" d="M67.366 67.366c89.821-89.821 235.449-89.821 325.269 0s89.821 235.449 0 325.269-235.449 89.821-325.269 0-89.82-235.448 0-325.269z"/>
  <path fill="#80b7ae" d="M11.967 303.329c-26.882-80.137-8.426-172.137 55.399-235.963 89.821-89.821 235.449-89.821 325.269 0 18.911 18.911 33.824 40.301 44.771 63.118-15.842 37.446-39.001 72.533-69.52 103.052-96.224 96.225-237.769 119.474-355.919 69.793z"/>
  <path fill="#b6715f" d="M67.366 392.636c-89.821-89.821-89.821-235.449 0-325.269l325.269 325.269c-89.82 89.82-235.448 89.82-325.269 0z"/>
  <path fill="#ca7d69" d="M290.726 290.726c-86.454 46.021-189.307 50.217-278.758 12.603-26.883-80.137-8.427-172.137 55.398-235.963l223.36 223.36z"/>
  <path fill="#ddac67" d="M67.366 67.366c39.052-39.052 143.525 2.103 233.345 91.924s130.976 194.293 91.924 233.345-143.525-2.103-233.345-91.924S28.314 106.419 67.366 67.366z"/>
  <path fill="#e5c36e" d="M67.366 67.366c39.052-39.052 143.525 2.103 233.345 91.924 25.325 25.325 46.779 51.814 63.66 77.674-50.756 49.273-113.605 78.711-178.82 88.288a528.287 528.287 0 0 1-26.261-24.54C69.47 210.891 28.314 106.419 67.366 67.366z"/>
</svg>
