<svg xmlns="http://www.w3.org/2000/svg" viewBox="0 0 556.33 368.945">
  <path fill="red" fill-rule="evenodd" d="M556.33 340.28v28.66H0v-28.66h18.904v-25.14h18.697V60.037L19.943 42.379V0h21.189v28.668h9.972V0h38.639v28.668h16.207V0h38.64v28.668h9.97V0h22.23v41.133l-16 16.203V168.89h9.76v19.95h13.92v-19.95h19.95v19.95h11.21v-19.95h11.01v-11.42l-12.46-16.21v-32.4h26.17v19.73h11.22v-19.73h21.19v19.73h9.97v-19.73h23.48v19.73h9.97v-19.73h24.93v31.16l-9.77 16.2v12.67h7.28v19.95h14.95v-19.95h19.74v19.95h9.97v-19.95h12.46V58.583l-16.2-16.204V0h22.44v28.668h8.72V0h38.64v28.668h16.2V0h38.44v28.668h8.72V0h21.19v42.379l-14.75 14.957V313.9h14.75v26.38z" clip-rule="evenodd"/>
  <path fill="#fff" fill-rule="evenodd" d="M330.51 205.87h63.78V313.9h-63.78zM162.04 205.87h64.19V313.9h-64.19zM432.72 59.621h-29.29V313.9h29.29zM476.97 59.621h-37.81V314.1h37.81zM508.34 59.621h-24.72V313.69h24.72zM522.88 38.225V9.557h-5.61v23.681h-18.7V9.557h-5.4v28.668zM489.02 38.225V9.557h-18.28v23.474h-27.63V9.557h-17.25v28.668zM420.26 38.225V9.557h-5.61v23.681h-18.7V9.557h-5.4v28.668zM522.88 41.756l-11.01 12.257h-28.88l10.18-12.257zM390.55 41.756l11.22 12.257h29.29l-10.8-12.257zM489.02 41.756h-63.16l10.81 12.257h40.92zM122.36 59.621h29.29V313.9h-29.29zM78.11 59.621h37.6V314.1h-37.6zM46.741 59.621h24.721V313.69H46.741z" clip-rule="evenodd"/>
  <path fill="red" fill-rule="evenodd" d="M89.12 98.677h16.83V169.1H89.12zM52.558 98.469h13.088v70.421H52.558z" clip-rule="evenodd"/>
  <path fill="#fff" fill-rule="evenodd" d="M32.2 38.225V9.557h5.609v23.681h18.696V9.557h5.194v28.668zM66.061 38.225V9.557h18.281v23.474h27.628V9.557h17.24v28.668zM134.82 38.225V9.557h5.61v23.681h18.7V9.557h5.4v28.668zM32.2 41.964l11.01 12.049h28.875L61.699 41.756zM164.53 41.964l-11.22 12.049h-29.29l10.8-12.257zM66.061 41.756h63.149l-10.8 12.257H77.279zM56.09 103.25h6.232v60.45H56.09z" clip-rule="evenodd"/>
  <path fill="red" fill-rule="evenodd" d="M132.12 98.469h13.3v70.421h-13.3z" clip-rule="evenodd"/>
  <path fill="#fff" fill-rule="evenodd" d="M135.65 103.25h6.24v60.45h-6.24zM93.898 103.45h8.312v60.25h-8.312z" clip-rule="evenodd"/>
  <path fill="red" fill-rule="evenodd" d="M89.12 225.81h16.83v70.43H89.12zM52.558 225.4h13.088v70.42H52.558z" clip-rule="evenodd"/>
  <path fill="#fff" fill-rule="evenodd" d="M56.09 230.18h6.232v60.45H56.09z" clip-rule="evenodd"/>
  <path fill="red" fill-rule="evenodd" d="M132.12 225.4h13.3v70.42h-13.3z" clip-rule="evenodd"/>
  <path fill="#fff" fill-rule="evenodd" d="M135.65 230.18h6.24v60.45h-6.24zM93.898 230.38h8.312v60.25h-8.312z" clip-rule="evenodd"/>
  <path fill="red" fill-rule="evenodd" d="M172.84 225.4h13.09v70.42h-13.09z" clip-rule="evenodd"/>
  <path fill="#fff" fill-rule="evenodd" d="M176.37 230.38h6.23v60.66h-6.23z" clip-rule="evenodd"/>
  <path fill="red" fill-rule="evenodd" d="M202.96 225.4h13.09v70.42h-13.09z" clip-rule="evenodd"/>
  <path fill="#fff" fill-rule="evenodd" d="M206.49 230.38h6.03v60.66h-6.03z" clip-rule="evenodd"/>
  <path fill="red" fill-rule="evenodd" d="M468.04 98.677h-16.83V169.1h16.83zM504.39 98.469H491.3v70.421h13.09z" clip-rule="evenodd"/>
  <path fill="#fff" fill-rule="evenodd" d="M501.07 103.25h-6.23v60.45h6.23z" clip-rule="evenodd"/>
  <path fill="red" fill-rule="evenodd" d="M424.83 98.469h-13.3v70.421h13.3z" clip-rule="evenodd"/>
  <path fill="#fff" fill-rule="evenodd" d="M421.3 103.25h-6.24v60.45h6.24zM463.05 103.45h-8.1v60.25h8.1z" clip-rule="evenodd"/>
  <path fill="red" fill-rule="evenodd" d="M468.04 225.81h-16.83v70.43h16.83zM504.39 225.4H491.3v70.42h13.09z" clip-rule="evenodd"/>
  <path fill="#fff" fill-rule="evenodd" d="M501.07 230.18h-6.23v60.45h6.23z" clip-rule="evenodd"/>
  <path fill="red" fill-rule="evenodd" d="M424.83 225.4h-13.3v70.42h13.3z" clip-rule="evenodd"/>
  <path fill="#fff" fill-rule="evenodd" d="M421.3 230.18h-6.24v60.45h6.24zM463.05 230.38h-8.1v60.25h8.1z" clip-rule="evenodd"/>
  <path fill="red" fill-rule="evenodd" d="M384.11 225.4h-12.88v70.42h12.88z" clip-rule="evenodd"/>
  <path fill="#fff" fill-rule="evenodd" d="M380.79 230.38h-6.24v60.66h6.24z" clip-rule="evenodd"/>
  <path fill="red" fill-rule="evenodd" d="M354.2 225.4h-13.09v70.42h13.09z" clip-rule="evenodd"/>
  <path fill="#fff" fill-rule="evenodd" d="M350.87 230.38h-6.23v60.66h6.23zM226.02 119.45v18.28h103.87v-18.28h-8.93v13.09h-21.61v-13.09h-11.01v13.09h-20.56v-13.09h-11.43v13.09h-21.4v-13.09zM226.64 142.51l4.99 7.69h92.23l4.99-7.69zM235.37 156.01v86.42l3.11-3.74 3.33-3.53 3.11-3.32 3.12-3.33 3.12-2.91 2.9-2.9 2.91-2.5 2.7-2.28 2.91-2.08 2.5-2.08 2.28-1.66 2.29-1.45 2.07-1.46 1.66-1.03 1.67-1.04 1.45-.84 1.25-.41 3.94 1.87 3.95 2.08 3.74 2.08 3.53 2.49 3.33 2.28 3.11 2.7 2.91 2.5 2.7 2.49 2.49 2.49 2.29 2.49 2.08 2.08 2.08 2.29 1.66 2.07 1.45 1.87 1.25 1.46 1.04 1.45.83 1.04v-85.59z" clip-rule="evenodd"/>
  <path fill="#fff" fill-rule="evenodd" d="M235.78 252.61l2.29-3.53 2.28-3.12 2.29-3.11 2.08-2.7 1.87-2.7 2.28-2.5 2.08-2.28 1.87-2.08 2.08-2.28 2.07-1.87 2.29-2.08 2.28-2.08 2.5-1.87 2.49-1.87 2.49-2.08 3.12-2.07 2.91-2.08 3.11-2.29 3.12 1.88 3.32 2.28 3.12 2.08 2.91 2.49 2.91 2.29 2.9 2.7 2.91 2.49 2.49 2.49 2.71 2.7 2.28 2.5 2.29 2.49 1.86 2.49 2.08 2.49 1.66 2.29 1.46 2.28 1.45 2.08 1.04 1.87 1.04 1.87-1.04 3.95-4.15-.63-1.87-3.53-2.08-3.32-2.29-3.33-2.49-3.11-2.49-3.12-2.7-2.91-2.49-2.7-2.71-2.7-2.49-2.49-2.7-2.08-2.49-1.87-2.29-1.66-2.07-1.45-2.08-1.04-1.66-.83-1.46-.42-3.11 1.66-2.91 2.08-2.7 2.08-2.91 2.28-2.7 2.5-2.7 2.49-2.7 2.49-2.29 2.7-2.49 2.5-2.08 2.49-2.07 2.49-1.88 2.29-1.66 2.28-1.45 1.87-1.25 1.87-1.04 1.66-3.53 2.7-2.7-1.45-.62-2.08zM162.04 179.28v19.74h64.19v-19.74h-5.4v14.33H198.6v-14.33h-8.93v14.33h-22.86v-14.33zM330.51 179.28v19.74h63.78v-19.74h-5.4v14.33h-22.02v-14.33h-8.73v14.33h-23.06v-14.33z" clip-rule="evenodd"/>
  <path fill="#fff" fill-rule="evenodd" d="M262.79 247.83h13.09v46.74h-13.09zM262.79 299.77h13.09v14.13h-13.09zM235.37 267.15h7.89v46.33h-7.89zM247.42 299.77h12.25v14.13h-12.25zM259.67 294.78h-12.05v-27.63l2.71-4.57-.42-4.15-2.08-2.49v-4.16l3.95-3.95h7.89zM275.67 227.48v14.74h-12.88v-8.3l3.32-3.33 3.33-2.7 3.11-2.08 2.08-.62 1.04 1.45zM292.91 247.83h-13.09v46.74h13.09zM292.91 299.77h-13.09v14.13h13.09zM320.13 267.15h-7.69v46.33h7.69zM307.87 299.77h-12.05v14.13h12.05zM295.82 294.78h12.05v-27.63l-2.49-4.57.41-4.15 1.87-2.49v-4.16l-3.94-3.95h-7.9zM279.82 227.48v14.74h13.09v-8.3l-3.53-3.33-3.32-2.7-3.12-2.08-2.28-.62-.84 1.45zM225.4 317.84h104.7v7.69H225.4zM220.62 330.31h113.63v7.06H220.62zM213.76 343.19h127.35v5.61H213.76zM206.28 352.74H349v6.44H206.28zM334.25 317.63v7.69h6.03v11.84h44.24v-19.53zM390.97 317.84h34.06v19.32h-34.06zM431.27 317.84h46.74v19.32h-46.74zM484.86 317.84h40.3v19.32h-40.3zM346.3 342.98v5.82h7.9v10.17h19.52v-15.99zM379.75 343.19h37.81v15.99h-37.81zM424.2 343.19h61.7v15.78h-61.7zM492.76 343.19h52.76v15.78h-52.76zM221.24 317.63v7.69h-6.02v11.84h-44.46v-19.53zM164.53 317.84h-34.07v19.32h34.07zM124.02 317.84H77.279v19.32h46.741zM70.424 317.84H30.122v19.32h40.302zM209.19 342.98v5.82h-7.89v10.17h-19.74v-15.99zM175.54 343.19h-37.81v15.99h37.81zM131.29 343.19H69.593v15.78h61.697zM62.737 343.19H9.972v15.78h52.765z" clip-rule="evenodd"/>
</svg>
