<?xml version="1.0" encoding="UTF-8"?>
<!DOCTYPE svg  PUBLIC '-//W3C//DTD SVG 1.1//EN'  'http://www.w3.org/Graphics/SVG/1.1/DTD/svg11.dtd'>
<svg width="613.66px" height="368.94px" enable-background="new 0 0 613.662 368.945" version="1.1" viewBox="0 0 613.662 368.945" xml:space="preserve" xmlns="http://www.w3.org/2000/svg">
<polygon points="556.33 340.28 556.33 368.94 0 368.94 0 340.28 18.904 340.28 18.904 315.14 37.601 315.14 37.601 60.037 19.943 42.379 19.943 0 41.132 0 41.132 28.668 51.104 28.668 51.104 0 89.743 0 89.743 28.668 105.95 28.668 105.95 0 144.59 0 144.59 28.668 154.56 28.668 154.56 0 176.79 0 176.79 41.133 160.79 57.336 160.79 168.89 170.55 168.89 170.55 188.84 184.47 188.84 184.47 168.89 204.42 168.89 204.42 188.84 215.63 188.84 215.63 168.89 226.64 168.89 226.64 157.47 214.18 141.26 214.18 108.86 240.35 108.86 240.35 128.59 251.57 128.59 251.57 108.86 272.76 108.86 272.76 128.59 282.73 128.59 282.73 108.86 306.21 108.86 306.21 128.59 316.18 128.59 316.18 108.86 341.11 108.86 341.11 140.02 331.34 156.22 331.34 168.89 338.62 168.89 338.62 188.84 353.57 188.84 353.57 168.89 373.31 168.89 373.31 188.84 383.28 188.84 383.28 168.89 395.74 168.89 395.74 58.583 379.54 42.379 379.54 0 401.98 0 401.98 28.668 410.7 28.668 410.7 0 449.34 0 449.34 28.668 465.54 28.668 465.54 0 503.98 0 503.98 28.668 512.7 28.668 512.7 0 533.89 0 533.89 42.379 519.14 57.336 519.14 313.9 533.89 313.9 533.89 340.28" clip-rule="evenodd" fill="#f00" fill-rule="evenodd"/>
<polygon points="330.51 205.87 394.29 205.87 394.29 313.9 330.51 313.9" clip-rule="evenodd" fill="#fff" fill-rule="evenodd"/>
<polygon points="162.04 205.87 226.23 205.87 226.23 313.9 162.04 313.9" clip-rule="evenodd" fill="#fff" fill-rule="evenodd"/>
<polygon points="432.72 59.621 403.43 59.621 403.43 313.9 432.72 313.9" clip-rule="evenodd" fill="#fff" fill-rule="evenodd"/>
<polygon points="476.97 59.621 439.16 59.621 439.16 314.1 476.97 314.1" clip-rule="evenodd" fill="#fff" fill-rule="evenodd"/>
<polygon points="508.34 59.621 483.62 59.621 483.62 313.69 508.34 313.69" clip-rule="evenodd" fill="#fff" fill-rule="evenodd"/>
<polygon points="522.88 38.225 522.88 9.557 517.27 9.557 517.27 33.238 498.57 33.238 498.57 9.557 493.17 9.557 493.17 38.225" clip-rule="evenodd" fill="#fff" fill-rule="evenodd"/>
<polygon points="489.02 38.225 489.02 9.557 470.74 9.557 470.74 33.031 443.11 33.031 443.11 9.557 425.86 9.557 425.86 38.225" clip-rule="evenodd" fill="#fff" fill-rule="evenodd"/>
<polygon points="420.26 38.225 420.26 9.557 414.65 9.557 414.65 33.238 395.95 33.238 395.95 9.557 390.55 9.557 390.55 38.225" clip-rule="evenodd" fill="#fff" fill-rule="evenodd"/>
<polygon points="522.88 41.756 511.87 54.013 482.99 54.013 493.17 41.756" clip-rule="evenodd" fill="#fff" fill-rule="evenodd"/>
<polygon points="390.55 41.756 401.77 54.013 431.06 54.013 420.26 41.756" clip-rule="evenodd" fill="#fff" fill-rule="evenodd"/>
<polygon points="489.02 41.756 425.86 41.756 436.67 54.013 477.59 54.013" clip-rule="evenodd" fill="#fff" fill-rule="evenodd"/>
<polygon points="122.36 59.621 151.65 59.621 151.65 313.9 122.36 313.9" clip-rule="evenodd" fill="#fff" fill-rule="evenodd"/>
<polygon points="78.11 59.621 115.71 59.621 115.71 314.1 78.11 314.1" clip-rule="evenodd" fill="#fff" fill-rule="evenodd"/>
<polygon points="46.741 59.621 71.462 59.621 71.462 313.69 46.741 313.69" clip-rule="evenodd" fill="#fff" fill-rule="evenodd"/>
<polygon points="89.12 98.677 105.95 98.677 105.95 169.1 89.12 169.1" clip-rule="evenodd" fill="#f00" fill-rule="evenodd"/>
<polygon points="52.558 98.469 65.646 98.469 65.646 168.89 52.558 168.89" clip-rule="evenodd" fill="#f00" fill-rule="evenodd"/>
<polygon points="32.2 38.225 32.2 9.557 37.809 9.557 37.809 33.238 56.505 33.238 56.505 9.557 61.699 9.557 61.699 38.225" clip-rule="evenodd" fill="#fff" fill-rule="evenodd"/>
<polygon points="66.061 38.225 66.061 9.557 84.342 9.557 84.342 33.031 111.97 33.031 111.97 9.557 129.21 9.557 129.21 38.225" clip-rule="evenodd" fill="#fff" fill-rule="evenodd"/>
<polygon points="134.82 38.225 134.82 9.557 140.43 9.557 140.43 33.238 159.13 33.238 159.13 9.557 164.53 9.557 164.53 38.225" clip-rule="evenodd" fill="#fff" fill-rule="evenodd"/>
<polygon points="32.2 41.964 43.21 54.013 72.085 54.013 61.699 41.756" clip-rule="evenodd" fill="#fff" fill-rule="evenodd"/>
<polygon points="164.53 41.964 153.31 54.013 124.02 54.013 134.82 41.756" clip-rule="evenodd" fill="#fff" fill-rule="evenodd"/>
<polygon points="66.061 41.756 129.21 41.756 118.41 54.013 77.279 54.013" clip-rule="evenodd" fill="#fff" fill-rule="evenodd"/>
<polygon points="56.09 103.25 62.322 103.25 62.322 163.7 56.09 163.7" clip-rule="evenodd" fill="#fff" fill-rule="evenodd"/>
<polygon points="132.12 98.469 145.42 98.469 145.42 168.89 132.12 168.89" clip-rule="evenodd" fill="#f00" fill-rule="evenodd"/>
<polygon points="135.65 103.25 141.89 103.25 141.89 163.7 135.65 163.7" clip-rule="evenodd" fill="#fff" fill-rule="evenodd"/>
<polygon points="93.898 103.45 102.21 103.45 102.21 163.7 93.898 163.7" clip-rule="evenodd" fill="#fff" fill-rule="evenodd"/>
<polygon points="89.12 225.81 105.95 225.81 105.95 296.24 89.12 296.24" clip-rule="evenodd" fill="#f00" fill-rule="evenodd"/>
<polygon points="52.558 225.4 65.646 225.4 65.646 295.82 52.558 295.82" clip-rule="evenodd" fill="#f00" fill-rule="evenodd"/>
<polygon points="56.09 230.18 62.322 230.18 62.322 290.63 56.09 290.63" clip-rule="evenodd" fill="#fff" fill-rule="evenodd"/>
<polygon points="132.12 225.4 145.42 225.4 145.42 295.82 132.12 295.82" clip-rule="evenodd" fill="#f00" fill-rule="evenodd"/>
<polygon points="135.65 230.18 141.89 230.18 141.89 290.63 135.65 290.63" clip-rule="evenodd" fill="#fff" fill-rule="evenodd"/>
<polygon points="93.898 230.38 102.21 230.38 102.21 290.63 93.898 290.63" clip-rule="evenodd" fill="#fff" fill-rule="evenodd"/>
<polygon points="172.84 225.4 185.93 225.4 185.93 295.82 172.84 295.82" clip-rule="evenodd" fill="#f00" fill-rule="evenodd"/>
<polygon points="176.37 230.38 182.6 230.38 182.6 291.04 176.37 291.04" clip-rule="evenodd" fill="#fff" fill-rule="evenodd"/>
<polygon points="202.96 225.4 216.05 225.4 216.05 295.82 202.96 295.82" clip-rule="evenodd" fill="#f00" fill-rule="evenodd"/>
<polygon points="206.49 230.38 212.52 230.38 212.52 291.04 206.49 291.04" clip-rule="evenodd" fill="#fff" fill-rule="evenodd"/>
<polygon points="468.04 98.677 451.21 98.677 451.21 169.1 468.04 169.1" clip-rule="evenodd" fill="#f00" fill-rule="evenodd"/>
<polygon points="504.39 98.469 491.3 98.469 491.3 168.89 504.39 168.89" clip-rule="evenodd" fill="#f00" fill-rule="evenodd"/>
<polygon points="501.07 103.25 494.84 103.25 494.84 163.7 501.07 163.7" clip-rule="evenodd" fill="#fff" fill-rule="evenodd"/>
<polygon points="424.83 98.469 411.53 98.469 411.53 168.89 424.83 168.89" clip-rule="evenodd" fill="#f00" fill-rule="evenodd"/>
<polygon points="421.3 103.25 415.06 103.25 415.06 163.7 421.3 163.7" clip-rule="evenodd" fill="#fff" fill-rule="evenodd"/>
<polygon points="463.05 103.45 454.95 103.45 454.95 163.7 463.05 163.7" clip-rule="evenodd" fill="#fff" fill-rule="evenodd"/>
<polygon points="468.04 225.81 451.21 225.81 451.21 296.24 468.04 296.24" clip-rule="evenodd" fill="#f00" fill-rule="evenodd"/>
<polygon points="504.39 225.4 491.3 225.4 491.3 295.82 504.39 295.82" clip-rule="evenodd" fill="#f00" fill-rule="evenodd"/>
<polygon points="501.07 230.18 494.84 230.18 494.84 290.63 501.07 290.63" clip-rule="evenodd" fill="#fff" fill-rule="evenodd"/>
<polygon points="424.83 225.4 411.53 225.4 411.53 295.82 424.83 295.82" clip-rule="evenodd" fill="#f00" fill-rule="evenodd"/>
<polygon points="421.3 230.18 415.06 230.18 415.06 290.63 421.3 290.63" clip-rule="evenodd" fill="#fff" fill-rule="evenodd"/>
<polygon points="463.05 230.38 454.95 230.38 454.95 290.63 463.05 290.63" clip-rule="evenodd" fill="#fff" fill-rule="evenodd"/>
<polygon points="384.11 225.4 371.23 225.4 371.23 295.82 384.11 295.82" clip-rule="evenodd" fill="#f00" fill-rule="evenodd"/>
<polygon points="380.79 230.38 374.55 230.38 374.55 291.04 380.79 291.04" clip-rule="evenodd" fill="#fff" fill-rule="evenodd"/>
<polygon points="354.2 225.4 341.11 225.4 341.11 295.82 354.2 295.82" clip-rule="evenodd" fill="#f00" fill-rule="evenodd"/>
<polygon points="350.87 230.38 344.64 230.38 344.64 291.04 350.87 291.04" clip-rule="evenodd" fill="#fff" fill-rule="evenodd"/>
<polygon points="226.02 119.45 226.02 137.73 329.89 137.73 329.89 119.45 320.96 119.45 320.96 132.54 299.35 132.54 299.35 119.45 288.34 119.45 288.34 132.54 267.78 132.54 267.78 119.45 256.35 119.45 256.35 132.54 234.95 132.54 234.95 119.45" clip-rule="evenodd" fill="#fff" fill-rule="evenodd"/>
<polygon points="226.64 142.51 231.63 150.2 323.86 150.2 328.85 142.51" clip-rule="evenodd" fill="#fff" fill-rule="evenodd"/>
<polygon points="235.37 156.01 235.37 242.43 238.48 238.69 241.81 235.16 244.92 231.84 248.04 228.51 251.16 225.6 254.06 222.7 256.97 220.2 259.67 217.92 262.58 215.84 265.08 213.76 267.36 212.1 269.65 210.65 271.72 209.19 273.38 208.16 275.05 207.12 276.5 206.28 277.75 205.87 281.69 207.74 285.64 209.82 289.38 211.9 292.91 214.39 296.24 216.67 299.35 219.37 302.26 221.87 304.96 224.36 307.45 226.85 309.74 229.34 311.82 231.42 313.9 233.71 315.56 235.78 317.01 237.65 318.26 239.11 319.3 240.56 320.13 241.6 320.13 156.01" clip-rule="evenodd" fill="#fff" fill-rule="evenodd"/>
<polygon points="235.78 252.61 238.07 249.08 240.35 245.96 242.64 242.85 244.72 240.15 246.59 237.45 248.87 234.95 250.95 232.67 252.82 230.59 254.9 228.31 256.97 226.44 259.26 224.36 261.54 222.28 264.04 220.41 266.53 218.54 269.02 216.46 272.14 214.39 275.05 212.31 278.16 210.02 281.28 211.9 284.6 214.18 287.72 216.26 290.63 218.75 293.54 221.04 296.44 223.74 299.35 226.23 301.84 228.72 304.55 231.42 306.83 233.92 309.12 236.41 310.98 238.9 313.06 241.39 314.72 243.68 316.18 245.96 317.63 248.04 318.67 249.91 319.71 251.78 318.67 255.73 314.52 255.1 312.65 251.57 310.57 248.25 308.28 244.92 305.79 241.81 303.3 238.69 300.6 235.78 298.11 233.08 295.4 230.38 292.91 227.89 290.21 225.81 287.72 223.94 285.43 222.28 283.36 220.83 281.28 219.79 279.62 218.96 278.16 218.54 275.05 220.2 272.14 222.28 269.44 224.36 266.53 226.64 263.83 229.14 261.13 231.63 258.43 234.12 256.14 236.82 253.65 239.32 251.57 241.81 249.5 244.3 247.62 246.59 245.96 248.87 244.51 250.74 243.26 252.61 242.22 254.27 238.69 256.97 235.99 255.52 235.37 253.44" clip-rule="evenodd" fill="#fff" fill-rule="evenodd"/>
<polygon points="162.04 179.28 162.04 199.02 226.23 199.02 226.23 179.28 220.83 179.28 220.83 193.61 198.6 193.61 198.6 179.28 189.67 179.28 189.67 193.61 166.81 193.61 166.81 179.28" clip-rule="evenodd" fill="#fff" fill-rule="evenodd"/>
<polygon points="330.51 179.28 330.51 199.02 394.29 199.02 394.29 179.28 388.89 179.28 388.89 193.61 366.87 193.61 366.87 179.28 358.14 179.28 358.14 193.61 335.08 193.61 335.08 179.28" clip-rule="evenodd" fill="#fff" fill-rule="evenodd"/>
<polygon points="262.79 247.83 275.88 247.83 275.88 294.57 262.79 294.57" clip-rule="evenodd" fill="#fff" fill-rule="evenodd"/>
<polygon points="262.79 299.77 275.88 299.77 275.88 313.9 262.79 313.9" clip-rule="evenodd" fill="#fff" fill-rule="evenodd"/>
<polygon points="235.37 267.15 243.26 267.15 243.26 313.48 235.37 313.48" clip-rule="evenodd" fill="#fff" fill-rule="evenodd"/>
<polygon points="247.42 299.77 259.67 299.77 259.67 313.9 247.42 313.9" clip-rule="evenodd" fill="#fff" fill-rule="evenodd"/>
<polygon points="259.67 294.78 247.62 294.78 247.62 267.15 250.33 262.58 249.91 258.43 247.83 255.94 247.83 251.78 251.78 247.83 259.67 247.83" clip-rule="evenodd" fill="#fff" fill-rule="evenodd"/>
<polygon points="275.67 227.48 275.67 242.22 262.79 242.22 262.79 233.92 266.11 230.59 269.44 227.89 272.55 225.81 274.63 225.19 275.67 226.64" clip-rule="evenodd" fill="#fff" fill-rule="evenodd"/>
<polygon points="292.91 247.83 279.82 247.83 279.82 294.57 292.91 294.57" clip-rule="evenodd" fill="#fff" fill-rule="evenodd"/>
<polygon points="292.91 299.77 279.82 299.77 279.82 313.9 292.91 313.9" clip-rule="evenodd" fill="#fff" fill-rule="evenodd"/>
<polygon points="320.13 267.15 312.44 267.15 312.44 313.48 320.13 313.48" clip-rule="evenodd" fill="#fff" fill-rule="evenodd"/>
<polygon points="307.87 299.77 295.82 299.77 295.82 313.9 307.87 313.9" clip-rule="evenodd" fill="#fff" fill-rule="evenodd"/>
<polygon points="295.82 294.78 307.87 294.78 307.87 267.15 305.38 262.58 305.79 258.43 307.66 255.94 307.66 251.78 303.72 247.83 295.82 247.83" clip-rule="evenodd" fill="#fff" fill-rule="evenodd"/>
<polygon points="279.82 227.48 279.82 242.22 292.91 242.22 292.91 233.92 289.38 230.59 286.06 227.89 282.94 225.81 280.66 225.19 279.82 226.64" clip-rule="evenodd" fill="#fff" fill-rule="evenodd"/>
<polygon points="225.4 317.84 330.1 317.84 330.1 325.53 225.4 325.53" clip-rule="evenodd" fill="#fff" fill-rule="evenodd"/>
<polygon points="220.62 330.31 334.25 330.31 334.25 337.37 220.62 337.37" clip-rule="evenodd" fill="#fff" fill-rule="evenodd"/>
<polygon points="213.76 343.19 341.11 343.19 341.11 348.8 213.76 348.8" clip-rule="evenodd" fill="#fff" fill-rule="evenodd"/>
<polygon points="206.28 352.74 349 352.74 349 359.18 206.28 359.18" clip-rule="evenodd" fill="#fff" fill-rule="evenodd"/>
<polygon points="334.25 317.63 334.25 325.32 340.28 325.32 340.28 337.16 384.52 337.16 384.52 317.63" clip-rule="evenodd" fill="#fff" fill-rule="evenodd"/>
<polygon points="390.97 317.84 425.03 317.84 425.03 337.16 390.97 337.16" clip-rule="evenodd" fill="#fff" fill-rule="evenodd"/>
<polygon points="431.27 317.84 478.01 317.84 478.01 337.16 431.27 337.16" clip-rule="evenodd" fill="#fff" fill-rule="evenodd"/>
<polygon points="484.86 317.84 525.16 317.84 525.16 337.16 484.86 337.16" clip-rule="evenodd" fill="#fff" fill-rule="evenodd"/>
<polygon points="346.3 342.98 346.3 348.8 354.2 348.8 354.2 358.97 373.72 358.97 373.72 342.98" clip-rule="evenodd" fill="#fff" fill-rule="evenodd"/>
<polygon points="379.75 343.19 417.56 343.19 417.56 359.18 379.75 359.18" clip-rule="evenodd" fill="#fff" fill-rule="evenodd"/>
<polygon points="424.2 343.19 485.9 343.19 485.9 358.97 424.2 358.97" clip-rule="evenodd" fill="#fff" fill-rule="evenodd"/>
<polygon points="492.76 343.19 545.52 343.19 545.52 358.97 492.76 358.97" clip-rule="evenodd" fill="#fff" fill-rule="evenodd"/>
<polygon points="221.24 317.63 221.24 325.32 215.22 325.32 215.22 337.16 170.76 337.16 170.76 317.63" clip-rule="evenodd" fill="#fff" fill-rule="evenodd"/>
<polygon points="164.53 317.84 130.46 317.84 130.46 337.16 164.53 337.16" clip-rule="evenodd" fill="#fff" fill-rule="evenodd"/>
<polygon points="124.02 317.84 77.279 317.84 77.279 337.16 124.02 337.16" clip-rule="evenodd" fill="#fff" fill-rule="evenodd"/>
<polygon points="70.424 317.84 30.122 317.84 30.122 337.16 70.424 337.16" clip-rule="evenodd" fill="#fff" fill-rule="evenodd"/>
<polygon points="209.19 342.98 209.19 348.8 201.3 348.8 201.3 358.97 181.56 358.97 181.56 342.98" clip-rule="evenodd" fill="#fff" fill-rule="evenodd"/>
<polygon points="175.54 343.19 137.73 343.19 137.73 359.18 175.54 359.18" clip-rule="evenodd" fill="#fff" fill-rule="evenodd"/>
<polygon points="131.29 343.19 69.593 343.19 69.593 358.97 131.29 358.97" clip-rule="evenodd" fill="#fff" fill-rule="evenodd"/>
<polygon points="62.737 343.19 9.972 343.19 9.972 358.97 62.737 358.97" clip-rule="evenodd" fill="#fff" fill-rule="evenodd"/>
<polygon points="571.91 346.72 572.32 350.66 573.57 354.4 575.23 357.94 577.93 360.84 580.84 363.13 584.16 365 587.9 366.04 592.06 366.66 596 366.04 599.95 365 603.28 363.13 606.18 360.84 608.47 357.94 610.34 354.4 611.58 350.66 612 346.72 611.58 342.56 610.34 338.82 608.47 335.29 606.18 332.38 603.28 329.89 599.95 328.23 596 326.98 592.06 326.57 587.9 326.98 584.16 328.23 580.84 329.89 577.93 332.38 575.23 335.29 573.57 338.82 572.32 342.56" fill="none" stroke="#fff" stroke-linecap="round" stroke-linejoin="round" stroke-width="3.3238"/>
<polygon points="584.37 342.15 584.37 336.33 596.42 336.33 596.63 336.54 596.84 336.54 597.25 336.75 597.46 336.75 597.67 336.75 598.08 336.95 598.29 337.16 598.91 337.37 599.54 337.99 600.16 338.41 600.57 339.03 600.78 339.65 601.2 340.28 601.2 341.11 601.2 341.94 601.2 342.15 598.08 342.15 598.08 341.94 598.08 341.52 598.08 341.11 597.87 340.69 597.67 340.28 597.67 340.07 597.25 339.86 597.04 339.45 596.84 339.45 596.42 339.24 596 339.03 595.59 339.03 595.17 338.82 587.49 338.82 587.49 342.15" clip-rule="evenodd" fill="#fff" fill-rule="evenodd"/>
<polygon points="584.37 342.15 584.37 356.9 587.49 356.9 587.49 347.96 594.55 347.96 594.97 348.17 595.59 348.17 595.8 348.38 596.21 348.38 596.42 348.59 596.84 348.8 597.04 349 597.25 349.21 597.25 349.63 597.46 349.83 597.67 350.25 597.67 350.87 597.67 351.29 597.87 353.99 597.87 354.82 598.08 355.65 598.08 356.27 598.5 356.9 602.03 356.9 602.03 356.27 601.82 356.06 601.61 355.86 601.4 355.86 601.2 355.44 601.2 355.03 601.2 354.82 601.2 354.4 600.99 353.99 600.78 350.46 600.78 349.63 600.57 349 600.37 348.38 600.16 347.96 599.95 347.55 599.54 347.13 598.91 346.92 598.08 346.72 598.91 346.3 599.54 345.89 599.95 345.47 600.57 344.85 600.78 344.22 601.2 343.6 601.2 342.77 601.2 342.15 598.08 342.15 598.08 342.56 598.08 342.98 597.87 343.39 597.67 343.81 597.67 344.02 597.25 344.43 597.04 344.64 596.84 345.06 596.42 345.06 596 345.26 595.59 345.47 595.17 345.47 594.76 345.68 587.49 345.68 587.49 342.15" clip-rule="evenodd" fill="#fff" fill-rule="evenodd"/>
</svg>
